<svg width="173" height="164" viewBox="0 0 173 164" fill="none" xmlns="http://www.w3.org/2000/svg">
<path d="M171.25 82.5C171.25 127.06 133.121 163.25 86 163.25C38.8792 163.25 0.75 127.06 0.75 82.5C0.75 37.9405 38.8792 1.75 86 1.75C133.121 1.75 171.25 37.9405 171.25 82.5Z" fill="white" stroke="#0FE366" stroke-width="1.5"/>
<mask id="mask0_950_286" style="mask-type:alpha" maskUnits="userSpaceOnUse" x="1" y="0" width="172" height="163">
<ellipse cx="87" cy="81.5" rx="86" ry="81.5" fill="#D9D9D9"/>
</mask>
<g mask="url(#mask0_950_286)">
<path d="M97.5173 263.312C98.5217 258.299 99.4873 253.915 100.232 250.404C100.232 250.404 117.401 215.606 117.561 165.587L77.8654 181.058C80.0835 191.564 84.4984 227.242 83.4061 248.981C74.3113 262.632 66.2982 275.853 66.6294 284.036C73.936 279.981 85.5748 272.389 85.5748 272.389C89.5207 269.47 93.7755 266.21 97.5173 263.312Z" fill="#C72418"/>
<path d="M97.5161 263.312C98.5205 258.299 99.4867 253.915 100.231 250.404C100.231 250.404 117.401 215.606 117.561 165.587L104.547 176.778C106.766 187.284 102.141 223.417 96.4238 250.671C92.6984 262.548 91.3411 271.463 91.3411 271.463C95.2923 268.544 93.7749 266.21 97.5161 263.312Z" fill="#9E1D13"/>
<path d="M83.3993 248.981C74.3045 262.632 66.2914 275.853 66.6227 284.036C69.0787 282.676 74.6304 279.259 77.0144 277.804C82.1358 264.849 89.7514 249.939 89.7514 249.939L89.7021 188.786L79.0618 187.907C81.3519 202.661 84.321 230.726 83.3993 248.981Z" fill="#F54538"/>
<path d="M160.606 50.5023C166.368 60.0926 171.059 73.4239 168.073 89.0677C165.761 96.7381 162.279 102.101 162.279 102.101C162.279 102.101 119.459 98.8884 108.174 107.563C88.0802 87.2368 96.2035 73.4397 96.2035 73.4397C98.4772 71.7497 102.224 69.8871 106.391 68.668C112.478 69.8871 120.684 73.6331 124.139 77.4367C126.076 76.1971 128.201 75.292 130.381 74.7632C137.538 75.2445 143.052 78.8656 146.904 82.1042C147.61 82.7005 148.46 83.8882 148.901 85.0864C151.865 81.0209 153.752 78.2743 154.861 72.681C155.353 66.2769 154.453 58.4707 153.355 55.7709L160.606 50.5023Z" fill="#C72418"/>
<path d="M160.606 50.5023C166.368 60.0926 171.059 73.4239 168.073 89.0677C165.761 96.7381 162.019 99.1503 162.019 99.1503C162.019 99.1503 119.829 94.9803 108.543 103.655C88.4499 83.3281 101.938 80.079 101.938 80.079C104.212 78.3893 107.904 76.4166 112.075 75.1976C116.794 76.7359 122.384 79.5139 125.839 83.3231C127.776 82.083 131.12 80.5446 133.3 80.0215C137.952 81.3141 141.324 82.8943 144.128 85.1071C144.724 86.0854 149.26 89.654 149.696 90.8522C153.465 90.3078 156.97 88.0531 158.868 86.2741C160.888 84.3801 161.688 81.5179 162.223 78.8287C162.715 72.4247 158.901 56.7964 157.803 54.0914L160.606 50.5023Z" fill="#9E1D13"/>
<path d="M92.7763 71.5507L96.2478 69.7771C96.2478 69.7771 104.128 71.0432 105.861 77.756C107.599 84.4688 99.9838 78.2635 99.5863 78.2635C99.1893 78.2585 92.7763 71.5507 92.7763 71.5507Z" fill="#450808"/>
<path d="M33.1201 83.768C30.5867 86.0333 34.6651 90.8365 34.6651 90.8365L86.568 81.5021C86.568 81.5021 116.617 81.8321 104.101 77.034C102.738 75.7419 98.7919 73.1571 95.5027 72.6183C87.9312 67.2344 84.4766 59.3131 84.0351 52.166C83.4723 43.0989 69.1236 24.164 62.3746 42.9628C61.7895 53.4113 61.2653 57.1313 58.5829 65.6282C52.1705 69.5993 48.4398 70.4103 43.1531 73.6804L33.1201 83.768Z" fill="#FFD5BE"/>
<path d="M33.1201 83.768C30.5867 86.0333 34.6651 90.8365 34.6651 90.8365L86.568 81.5021C86.568 81.5021 116.617 81.8321 104.101 77.034C102.738 75.7419 98.7919 73.1571 95.5027 72.6183C87.9312 67.2344 84.4766 59.3131 84.0351 52.166C83.4723 43.0989 75.3654 27.5698 68.6158 46.3739C68.0975 55.619 67.965 62.9386 67.9427 69.0811C68.5994 69.7037 71.8552 72.6546 72.9814 73.5542C71.8663 73.3557 69.3001 72.7488 67.9374 72.2778C63.8644 73.2196 56.4529 74.3025 52.0655 75.3807C48.7048 76.2071 49.7807 78.9593 47.5017 80.3664L33.1201 83.768Z" fill="#CF8E72"/>
<path d="M-61.0393 156.713C-54.3284 160.731 -69.8691 176.129 -60.6858 187.515C-36.3211 213.293 6.05077 192.872 16.2883 217.306C22.6456 233.039 -4.89796 247.103 -4.89796 247.103C-4.89796 247.103 -1.01306 251.121 0.0469437 250.786C1.10641 250.451 84.6641 242.682 61.9382 183.062C85.5969 162.306 63.8865 122.255 63.8865 122.255C63.8865 122.255 51.8836 94.4673 51.5301 92.4582C51.1771 90.4492 33.8763 76.0554 32.4633 75.3859C31.0504 74.7164 34.3178 131.604 21.2496 140.981C8.18669 150.356 -21.8458 150.027 -21.8458 150.027L-61.0393 156.713Z" fill="#540A0A"/>
<path d="M63.8864 122.25C63.8864 122.25 57.8433 108.264 54.2065 99.417C52.8984 105.612 51.0334 111.712 48.4337 117.635C41.0667 134.404 44.0135 153.972 31.7292 167.481C13.3021 181.691 -13.9653 184.564 -37.0611 180.525C-39.0258 179.593 -40.9905 176.799 -42.9547 174.936C-44.4286 174.005 -46.3928 173.54 -47.3754 172.608C-51.4427 169.302 -55.6811 166.324 -60.3 164.922C-62.3808 171.447 -66.5136 180.289 -60.6858 187.515C-42.9377 206.293 -15.6322 200.558 1.84564 205.507C17.0492 208.48 56.2978 189.456 68.3341 178.044C73.2456 183.632 62.6774 207.083 57.7659 214.067C54.3278 219.189 50.3931 223.851 44.9903 227.577C37.6228 233.164 29.7586 235.963 21.4037 237.36C16.1885 238.166 11.0671 238.998 5.99555 239.882C0.515353 244.335 -4.90389 247.108 -4.90389 247.108C-4.90389 247.108 -1.01847 251.126 0.0410004 250.791C1.10047 250.456 98.7694 234.692 76.0493 175.073C99.7075 154.312 63.8864 122.25 63.8864 122.25Z" fill="#450808"/>
<path d="M69.4654 58.2982L79.5592 65.5812L83.1187 66.162L86.8049 70.5883L89.7522 67.4439C89.7522 67.4439 86.9263 63.8338 86.8049 59.7579C86.6835 55.6822 69.4654 58.2982 69.4654 58.2982Z" fill="#AD775F"/>
<path d="M13.7164 92.186C13.7164 92.186 17.1873 122.066 18.6607 140.3C-3.93794 141.64 -49.3897 126.921 -62.0991 126.921C-82.5841 134.283 -96 167.428 -96 167.428C-96 167.428 -77.6392 158.058 -57.866 159.392C-38.0927 160.731 15.521 174.46 39.3064 154.924C43.9916 136.35 37.8716 100.573 35.1066 86.3995C29.0307 85.51 23.0041 84.5575 17.7725 82.0146C14.7371 86.7708 13.7164 92.186 13.7164 92.186Z" fill="#9E1D13"/>
<path d="M55.0565 79.0638C49.2397 70.7869 44.1682 70.4102 44.1682 70.4102C44.1682 70.4102 34.2291 73.7062 32.4631 75.3807C25.245 73.6643 20.6201 77.5465 17.7725 82.0146C22.9988 84.563 29.0307 85.5156 35.1066 86.3995C34.3726 82.6483 33.8761 80.4033 33.8761 80.4033L55.0565 79.0638Z" fill="#781F1F"/>
<path d="M55.0565 79.0638C50.4815 75.0508 46.5526 73.2145 46.5526 73.2145C46.5526 73.2145 38.4399 75.8828 36.674 77.5574C29.4554 75.841 20.615 77.5518 17.7673 82.0149C22.9931 84.5628 29.025 85.5154 35.1009 86.3993C34.3674 82.6481 33.8703 80.4034 33.8703 80.4034L55.0565 79.0638Z" fill="#2E0505"/>
<path d="M-22.5578 244.758C16.9887 249.781 80.5192 249.415 89.5865 126.2C111.832 85.6933 92.4119 125.195 92.4119 125.195C92.4119 125.195 101.027 242.08 -1.72508 258.817C-18.6729 252.455 -22.5578 244.758 -22.5578 244.758Z" fill="#9E1D13"/>
<path d="M59.5715 175.067C54.2291 192.642 46.0507 214.658 44.7151 244.774C31.0066 254.573 25.5821 263.547 24.07 272.954C34.3234 266.016 48.9424 262.448 48.9424 262.448C48.9424 262.448 51.8399 265.211 53.9864 270.097C55.4047 260.679 59.7867 252.261 59.7867 252.261C59.7867 252.261 83.0256 212.989 94.808 193.772C91.7282 187.655 78.2683 171.766 59.5715 175.067Z" fill="#C72418"/>
<path d="M48.9364 262.448C48.9364 262.448 51.8339 265.21 53.9804 270.097C55.3987 260.68 59.7807 252.261 59.7807 252.261C59.7807 252.261 83.0196 212.989 94.802 193.772C93.9519 192.082 89.3494 185.62 85.0172 182.418C84.6531 193.337 77.0099 218.514 70.3431 229.669C72.3687 223.992 72.8595 218.405 73.5994 211.414C68.9306 227.252 62.1148 238.077 58.6767 243.524C52.0268 259.403 48.9364 262.448 48.9364 262.448Z" fill="#9E1D13"/>
<path d="M117.245 154.616C117.361 154.663 117.417 150.121 117.527 150.169C117.383 136.439 117.51 117.583 117.51 117.583C117.51 117.583 122.345 109.431 123.597 104.074C115.479 80.6553 104.233 77.0398 104.233 77.0398C104.233 77.0398 61.634 75.0514 31.0991 80.5397C28.4613 82.7481 25.0068 101.165 36.0938 114.789C43.0692 126.854 51.281 131.521 61.1321 137.753C64.1229 143.618 64.7303 149.781 63.9188 156.604C67.6437 153.616 106.164 150.095 117.245 154.616Z" fill="#C72418"/>
<path d="M117.245 154.616C117.361 154.579 117.417 150.121 117.528 150.168C117.384 136.439 117.51 117.583 117.51 117.583C117.51 117.583 122.345 109.431 123.597 104.074C115.479 80.6553 104.233 77.0398 104.233 77.0398C104.233 77.0398 100.867 76.8304 97.5393 76.8566C98.2511 77.8087 99.5369 80.906 100.596 82.7843C115.453 84.0139 121.656 103.305 110.398 109.462C110.111 110.833 109.917 113.24 108.72 113.24C107.368 108.49 104.145 101.578 102.892 101.573C102.517 101.573 104.647 113.214 104.239 113.214C99.3768 113.46 95.4093 113.559 90.1882 113.957C94.8851 115.045 100.188 115.658 104.608 116.358C105.961 116.358 108.064 116.358 111.816 116.358C112.534 121.523 109.851 128.042 105.795 131.615C105.751 129.674 105.182 124.123 104.658 121.502C104.09 125.196 102.324 128.9 100.061 132.311C102.026 139.066 101.607 149.949 100.801 156.766C104.532 153.784 105.231 158.514 117.245 154.616Z" fill="#9E1D13"/>
<path d="M73.3506 154.234C73.4057 152.361 73.2016 143.419 74.7742 137.297C73.8525 137.716 73.2732 138.04 70.7345 138.684C63.8032 131.84 55.7901 114.496 55.7901 114.496C55.7901 114.496 62.9424 115.689 71.3143 114.324C62.3626 112.953 48.7925 103.373 48.7925 103.373C48.7925 103.373 38.4119 109.28 34.4385 112.55C34.9515 113.308 35.4976 114.057 36.0938 114.789C43.0692 126.854 51.281 131.521 61.1321 137.753C64.1229 143.618 64.7303 149.781 63.9188 156.604C64.9285 155.793 68.4884 154.945 73.3506 154.234Z" fill="#F54538"/>
<path d="M66.5129 156.541C66.5686 154.668 66.1764 143.79 63.5773 137.768C52.4685 131.307 46.1768 124.327 42.6449 118.881C42.1483 118.117 44.1019 116.84 43.7044 116.139C43.2353 115.301 40.4433 115.051 40.1009 114.329C38.6111 111.153 38.2798 109.149 38.2798 109.149C38.2798 109.149 38.4065 109.274 34.4331 112.55C34.9467 113.308 35.4931 114.056 36.0888 114.789C43.0647 126.854 51.2759 131.521 61.1271 137.753C64.1179 143.618 64.7252 149.781 63.9138 156.604C64.9293 155.793 65.6246 156.918 66.5129 156.541Z" fill="#FF8980"/>
<path d="M21.7407 192.045C24.6159 194.4 28.9317 195.425 28.9317 195.425L30.0299 198.685L32.0825 202.399L29.7484 206.695L29.9689 208.762L26.6246 212.628L20.9679 211.65L15.2672 211.969C15.2672 211.969 13.1483 211.059 11.9341 209.547C10.4718 204.335 10.4607 196.184 10.4607 196.184L21.7407 192.045Z" fill="url(#paint0_radial_950_286)"/>
<path d="M21.7407 192.045C24.6159 194.4 28.9317 195.425 28.9317 195.425L30.0299 198.685L32.0825 202.399L29.7484 206.695L29.9689 208.762L26.6246 212.628L20.9679 211.65L25.7639 211.681L27.8441 208.6C27.8441 208.6 27.4302 204.377 26.2165 202.865C25.8243 201.395 27.48 198.543 26.4757 198.051C23.4568 196.571 17.0443 196.262 17.0443 196.262L21.7407 192.045Z" fill="#AD775F"/>
<path d="M10.4598 196.179C6.69629 180.708 1.54733 157.378 3.264 144.899C6.06717 139.656 10.074 131.542 10.074 131.542C10.074 131.542 12.4357 119.288 10.5982 103.205C7.16004 82.4647 19.6871 71.7495 37.9981 79.6918C37.9981 79.6918 54.427 92.4636 38.0479 115.181C28.8206 131.605 19.5546 168.13 21.7456 192.04C22.3806 195.425 11.779 198.732 10.4598 196.179Z" fill="#C72418"/>
<path d="M24.8966 143.026C24.8966 143.026 30.7907 122.762 33.561 105.852C38.1635 105.292 42.8323 104.596 48.7264 103.43C46.1713 105.978 41.3753 110.561 38.048 115.186C28.8207 131.61 19.5547 168.135 21.7457 192.045C21.8671 192.684 21.5857 193.317 21.0451 193.913C17.7723 162.589 24.8966 143.026 24.8966 143.026Z" fill="#9E1D13"/>
<path d="M14.4834 138.495C15.4215 139.385 16.437 140.646 17.3528 141.514C18.363 129.078 17.8717 117.473 17.0438 102.499C15.9955 101.411 13.9258 97.7951 13.1865 95.9168C13.7218 93.3739 16.8837 81.8999 23.4568 77.5574C21.1773 77.9918 18.8871 78.2844 16.5419 79.3257C12.2261 83.03 7.77836 87.7388 7.20437 94.8128C8.1589 97.5701 9.26288 100.05 10.0685 102.923C11.906 119.006 10.0685 131.542 10.0685 131.542C10.0685 131.542 6.06168 139.652 3.25851 144.899C1.54184 157.378 6.6908 180.708 10.4549 196.179C10.626 196.503 11.6797 198.193 17.0438 196.304C16.6961 194.745 12.375 172.038 11.332 162.327C10.4602 154.077 11.5143 146.286 14.4834 138.495Z" fill="#F54538"/>
<path d="M5.45997 145.993C6.9339 142.733 10.7303 134.247 11.5529 132.421C12.5625 119.984 12.756 118.687 11.9281 103.712C11.5582 102.08 9.61571 96.8477 8.87636 94.9698C9.95809 89.6641 11.9943 84.6622 16.547 79.3202C12.2318 83.0245 7.78349 87.7338 7.2095 94.8073C8.16456 97.5646 9.26803 100.045 10.0736 102.917C11.9117 119.001 10.0736 131.537 10.0736 131.537C10.0736 131.537 6.06736 139.646 3.26366 144.894C1.54752 157.372 6.69647 180.702 10.46 196.174C10.5485 196.341 10.8739 196.88 11.9228 197.095C10.1621 190.209 4.24044 163.751 5.45997 145.993Z" fill="#FF8980"/>
<path d="M59.5715 175.067C54.2291 192.642 46.0507 214.658 44.7151 244.774C31.0066 254.573 25.5821 263.547 24.07 272.954C27.0995 270.908 30.5043 269.156 33.8041 267.702C36.3153 262.171 40.6639 254.171 47.9488 244.707C53.4231 219.158 64.3226 186.542 68.34 174.88C65.5697 174.508 62.645 174.522 59.5715 175.067Z" fill="#F54538"/>
<path d="M59.5715 175.067C54.2291 192.642 46.0507 214.658 44.7151 244.774C31.0066 254.573 25.5821 263.547 24.07 272.954C25.5158 272.41 26.2498 273.692 27.3591 272.295C28.4625 264.374 34.4833 254.359 44.9911 244.895C49.2237 211.739 57.8219 185.887 63.1415 173.545C60.3712 173.179 62.645 174.522 59.5715 175.067Z" fill="#FF8980"/>
<path d="M63.4284 349.881C62.5783 352.256 63.9913 356.62 63.9913 356.62H105.867L104.923 353.983L97.6606 351.859L80.5304 343.435C78.9415 326.331 93.1683 284.967 97.5116 263.311C93.941 263.651 87.6441 266.074 83.6871 268.988C83.6871 268.988 72.4898 276.768 66.6238 284.036C67.2089 298.513 68.1359 316.087 67.9758 329.921C67.9042 336.576 64.8467 345.92 63.4284 349.881Z" fill="#540A0A"/>
<path d="M63.4284 349.881C62.5783 352.256 63.9913 356.62 63.9913 356.62H105.867L104.923 353.983L97.6606 351.859L80.5304 343.435C78.9415 326.331 93.1683 284.967 97.5116 263.311C93.941 263.651 87.6441 266.074 83.6871 268.988C83.6871 268.988 79.896 324.343 74.0294 331.611C74.1513 334.593 73.9139 336.665 73.4666 338.161C76.1378 340.924 85.0063 345.685 87.5943 347.846C89.1726 349.165 84.1673 348.991 83.8085 349.253C83.3951 349.557 70.1944 342.279 69.7857 342.535C69.3665 342.797 68.969 343.064 68.6102 343.393C67.7055 344.241 67.4516 345.355 67.3578 348.144C67.3578 349.232 64.852 351.215 63.4284 349.881Z" fill="#3B0707"/>
<path d="M61.529 53.2282C59.0735 41.1892 62.3732 30.4373 62.3732 30.4373C62.3732 30.4373 65.8723 29.213 77.412 26.351C79.6412 24.9122 81.4018 24.0384 83.6204 23.0443C86.9372 22.6624 94.0837 24.818 97.1958 26.7957C97.1132 30.7041 93.3936 37.5163 93.3936 37.5163L91.44 38.0709L90.5735 39.0022L70.1107 46.5625L64.3438 45.3644L61.529 53.2282Z" fill="#630000"/>
<path d="M61.529 53.2282C62.0203 48.4409 63.4943 45.495 65.2162 42.3348C65.6026 41.6232 67.5562 42.4395 67.9977 41.7907C68.8971 40.4774 70.547 39.8077 71.193 38.6148C73.0528 35.193 73.0194 31.9753 73.0194 31.9753C73.0194 31.9753 73.5436 31.6666 77.12 30.39C79.3492 28.2762 83.3724 25.43 85.0059 23.8865C88.3226 23.5046 94.0784 24.8597 97.1911 26.8426C97.1911 30.9917 93.3889 37.5265 93.3889 37.5265L91.4353 38.0811L90.5688 39.0124L70.1107 46.5625L64.3438 45.3644L61.529 53.2282Z" fill="#380000"/>
<path d="M69.6081 43.2296C69.6081 43.2296 66.5123 37.3645 64.2609 39.7608C62.0089 42.157 63.5544 46.4264 68.3392 50.0261C68.3392 53.3589 69.465 58.2928 69.465 58.2928C69.465 58.2928 73.4325 59.9722 78.935 61.4582C82.9911 61.1233 85.789 60.6577 89.8398 61.4163C87.8035 55.8808 90.9713 47.9908 91.3958 42.1727C91.4456 41.4821 92.7203 40.1427 92.7754 39.4468C92.2788 35.8838 91.4568 32.8963 91.4568 32.8963C91.4568 32.8963 86.3905 30.7563 78.5322 31.4417C77.2295 32.0958 75.508 33.273 73.582 33.995C73.2068 35.5019 73.1124 36.407 71.8542 38.6934C71.7604 40.0171 71.5177 43.5749 71.6835 45.0085C71.3359 45.0085 70.6071 44.9719 70.3697 44.9719C70.0994 44.7051 69.6081 43.2296 69.6081 43.2296Z" fill="#FFD5BE"/>
<path d="M80.1227 51.0097C80.1227 51.0097 78.82 51.6637 77.5893 52.1974C77.5893 55.5302 78.9472 61.4529 78.9472 61.4529C78.9472 61.4529 82.3413 61.8976 89.5927 61.8976C90.5584 57.3248 91.425 53.2281 91.425 53.2281C91.425 53.2281 90.9776 47.9908 91.4027 42.1727C91.4525 41.4821 92.7272 40.1427 92.7823 39.4468C92.2857 35.8838 91.4636 32.8963 91.4636 32.8963C91.4636 32.8963 86.3974 30.7563 78.5385 31.4417C78.4007 32.9277 77.8326 36.3285 77.8326 38.5155C77.4351 39.1067 80.7735 39.6927 80.2992 40.0171C79.7862 40.3625 82.1314 41.6181 81.5187 41.9634C81.3369 42.0629 78.1855 41.2205 78.0144 41.3304C77.4239 41.7071 75.9728 42.607 75.6416 43.2087C75.967 45.2283 80.1227 51.0097 80.1227 51.0097Z" fill="#CF8E72"/>
<path d="M92.4782 44.5269L91.8714 43.5067C91.8714 43.5067 92.8041 41.1731 93.0299 40.0064C92.9806 39.8704 92.2408 39.6454 92.1856 39.5146L89.8404 39.9018L88.676 41.4662L90.85 47.415L92.4782 44.5269Z" fill="#C2856B"/>
<path d="M82.8312 38.4007L86.0653 38.678L86.5396 40.436L86.4681 42.262L84.6687 40.4779L79.8346 40.211L77.4724 38.7408L79.4758 38.16L82.8312 38.4007Z" fill="#FFD5BE"/>
<path d="M64.052 42.1937C64.052 42.1937 64.2783 40.6503 65.1285 40.5038C65.3214 40.5823 65.5037 40.666 65.6744 40.7654C65.8127 40.8439 65.8069 39.719 65.9394 39.8027C69.2121 41.9688 69.5264 45.6103 69.5264 45.6103L67.1923 47.0282L67.9539 45.4638L66.243 45.0086L65.6802 43.5489L66.596 42.8216L65.1889 41.5712L64.052 42.1937Z" fill="#CF8E72"/>
<path d="M81.2701 51.7736L83.9741 51.7056L89.5534 52.4014L89.1723 52.6735L81.2701 51.7736Z" fill="#AD775F"/>
<path d="M78.9467 40.8177L80.6464 41.9216L85.1112 42.5809L84.8849 40.713L84.3554 40.5561L80.1938 39.9282L78.9467 40.8177Z" fill="white"/>
<path d="M80.9825 50.7013L79.7243 50.8897L79.5203 52.3756L80.116 51.2402L80.9825 50.7013Z" fill="#FFD5BE"/>
<path d="M80.5966 39.907C80.5303 40.0587 80.3867 40.4145 80.3814 40.5924C80.3533 41.3458 80.9273 41.9789 81.6613 42.0051C82.3954 42.0312 83.0134 41.4348 83.0409 40.6813C83.0468 40.5034 83.0192 40.336 82.9641 40.1843C82.07 40.1529 81.3084 39.9332 80.5966 39.907Z" fill="#690000"/>
<path d="M78.9467 40.8177L80.1384 39.7394L84.9672 40.3986V40.7387L80.1384 40.0063L78.9467 40.8177Z" fill="#690000"/>
<path d="M88.676 41.4662L88.9301 42.0419L89.4766 43.2453L91.3862 43.4808L91.6342 43.0308L91.877 41.6704L88.8363 41.1839L88.676 41.4662Z" fill="#C7C7C7"/>
<path d="M89.1173 41.2832C89.0733 41.4297 88.9684 41.7646 88.9684 41.932C88.9684 42.6383 89.4374 43.2138 90.0225 43.2138C90.6071 43.2138 91.0762 42.6383 91.0762 41.932C91.0762 41.7646 91.0486 41.6128 90.9993 41.4663C90.2928 41.4663 89.6801 41.2832 89.1173 41.2832Z" fill="#690000"/>
<path d="M88.9457 41.0057L91.9365 41.4452V41.7853L88.7798 41.2935L88.9457 41.0057Z" fill="#690000"/>
<path d="M153.349 55.7759C152.218 54.7033 150.137 54.426 148.056 54.2952C146.909 53.4633 145.667 52.2652 144.342 50.6066C142.874 50.9833 141.942 51.1089 141.942 51.1089L137.946 47.6976L139.144 45.5524L137.621 43.8363C137.621 43.8363 138.382 39.7448 141.34 37.6572C142.869 36.8097 145.628 36.0196 148.752 35.9725C151.511 38.3897 156.345 43.423 160.595 50.4967C160.209 53.432 153.349 55.7759 153.349 55.7759Z" fill="#FFD5BE"/>
<path d="M153.349 55.7759C152.218 54.7033 150.137 54.426 148.056 54.2952C146.909 53.4633 145.667 52.2652 144.342 50.6066C142.874 50.9833 141.942 51.1089 141.942 51.1089L143.493 49.5342L147.19 52.9612C147.19 52.9612 150.579 52.9298 151.059 52.2392C151.566 51.5015 152.908 52.4328 153.735 51.3916C154.889 49.9371 155.065 48.2105 156.302 47.3367C157.83 46.4892 155.297 43.4231 154.127 41.4925C156.213 43.9359 158.481 46.9652 160.612 50.5021C157.918 56.1476 153.349 55.7759 153.349 55.7759Z" fill="#CF8E72"/>
<path d="M90.2769 37.872C90.2769 37.872 90.8122 38.3847 90.7184 38.3847C90.6246 38.3847 89.3054 39.8288 89.3054 41.7856C89.3054 43.7371 91.8992 47.6246 91.8992 47.6246L91.7339 48.2158L88.6048 49.2046L86.4471 42.7849L86.8775 38.8242L86.9713 37.7202L90.2769 37.872Z" fill="#CF8E72"/>
<path d="M86.965 39.4731C87.0922 39.8602 87.2025 40.6398 87.4124 42.0211C87.7102 43.9517 89.7465 47.1904 89.7465 47.1904L90.1164 47.8287L87.4229 48.76L86.0598 47.4677L86.4409 42.7849L85.6406 39.1016L85.2876 38.615C85.2929 38.6097 86.9375 39.3893 86.965 39.4731Z" fill="#FFD5BE"/>
<path d="M77.1254 38.6829L79.5809 38.4317L86.3908 39.7345L86.8768 38.6776L79.5035 37.8719L77.1254 38.6829Z" fill="#690000"/>
<path d="M89.0239 43.1303L91.6283 43.5175L91.7497 44.2394L90.9001 46.5049L89.0239 43.1303Z" fill="#CF8E72"/>
<path d="M89.8347 39.9016L93.0248 40.0219L92.6935 39.4883L90.0112 39.347L89.8347 39.9016Z" fill="#690000"/>
<path d="M117.097 154.615C106.049 150.095 67.6224 153.616 63.914 156.598C63.2462 162.233 61.6189 168.328 59.5715 175.067C78.219 171.765 91.6452 187.655 94.7139 193.772C94.7743 193.678 95.1331 193.531 95.1941 193.432C97.3294 192.349 100.834 191.507 104.708 188.655C109.437 183.878 115.017 174.487 117.511 166.727C117.511 163.876 117.478 159.57 117.428 154.756C117.313 154.715 117.208 154.662 117.097 154.615Z" fill="#540A0A"/>
<path d="M117.097 154.615C116.137 154.223 114.966 153.888 113.636 153.611C113.344 160.449 112.406 164.456 111.114 168.355C108.179 175.988 106.578 182.513 101.6 188.064C98.8187 190.005 97.4503 192.187 94.7128 193.772C94.7732 193.678 95.1321 193.531 95.193 193.432C97.3289 192.349 100.833 191.506 104.707 188.655C109.437 183.878 115.017 174.487 117.511 166.727C117.511 163.876 117.478 159.57 117.428 154.756C117.313 154.715 117.208 154.662 117.097 154.615Z" fill="#3B0707"/>
<path d="M72.9374 154.285C68.2792 154.987 64.8908 155.813 63.914 156.598C63.2462 162.233 61.6189 168.328 59.5715 175.067C62.6397 174.522 65.5698 174.503 68.3348 174.869C70.051 169.344 71.933 160.805 72.9374 154.285Z" fill="#781F1F"/>
<path d="M24.07 272.954C21.2446 290.492 32.0102 307.25 28.0866 336.032C25.0184 346.177 23.1803 357.002 23.1803 357.002H57.0707L46.635 350.504C39.7805 340.568 36.4033 322.774 47.8434 295.106C50.7902 287.975 52.7438 278.348 53.9855 270.102C51.8391 265.21 48.9415 262.453 48.9415 262.453C48.9415 262.453 34.3234 266.016 24.07 272.954Z" fill="#540A0A"/>
<path d="M24.07 272.954C21.2446 290.492 32.0102 307.25 28.0866 336.032C34.5102 323.689 26.7018 297.131 33.7985 267.707C30.6201 269.124 26.9786 270.987 24.07 272.954Z" fill="#661A1A"/>
<path d="M112.77 91.836C116.435 98.4751 114.939 106.072 109.432 108.808C103.924 111.54 96.4901 108.369 92.8257 101.73C89.1618 95.0902 90.6569 87.4879 96.1594 84.7569C101.667 82.0254 109.1 85.1963 112.77 91.836Z" fill="#FF8980"/>
<path d="M111.562 92.4373C114.785 98.2707 113.472 104.952 108.632 107.349C103.792 109.75 97.258 106.961 94.0404 101.128C90.8175 95.2884 92.1308 88.6124 96.9707 86.2164C101.805 83.8148 108.339 86.5983 111.562 92.4373Z" fill="white"/>
<path d="M110.447 93.0593C113.113 97.8887 112.025 103.419 108.019 105.402C104.012 107.39 98.6042 105.083 95.9389 100.253C93.2735 95.4246 94.3605 89.8944 98.3668 87.9111C102.379 85.9232 107.782 88.2249 110.447 93.0593Z" fill="#09D25A"/>
<path d="M107.524 105.662C111.659 103.814 113.027 98.3226 110.578 93.3954C108.13 88.4681 102.792 85.9712 98.6561 87.8188C94.5205 89.6659 93.1531 95.1577 95.6017 100.085C98.0503 105.012 103.388 107.509 107.524 105.662Z" fill="#540A0A"/>
<path d="M103.083 99.4825C102.4 99.662 101.728 99.4676 101.326 98.559C100.977 97.7639 100.561 95.6819 102.111 95.2742C102.402 95.1963 102.86 95.171 103.286 95.2787L102.799 93.1524L102.814 93.1485C102.341 93.1286 101.82 93.1921 101.246 93.3429C97.6015 94.307 98.2378 98.0303 98.9671 99.6838C99.792 101.552 101.372 102.101 103.466 101.551C103.801 101.46 104.232 101.281 104.613 101.07L104.13 98.9657C103.831 99.1948 103.506 99.3674 103.083 99.4825Z" fill="#F54538"/>
<path d="M108.126 93.4714L107.735 91.5509L103.562 92.7914L103.548 92.796L105.217 100.951L105.216 100.957L107.403 100.305L106.768 97.1818L108.515 96.6652L108.121 94.7722L106.373 95.2945L106.132 94.0646L108.126 93.4714Z" fill="#F54538"/>
</g>
<defs>
<radialGradient id="paint0_radial_950_286" cx="0" cy="0" r="1" gradientUnits="userSpaceOnUse" gradientTransform="translate(56.0976 291.777) rotate(168.931) scale(132.649 164.263)">
<stop stop-color="#FFBC9E"/>
<stop offset="1" stop-color="#FFCDB2"/>
</radialGradient>
</defs>
</svg>
