<?xml version="1.0" encoding="utf-8"?>
<svg xmlns="http://www.w3.org/2000/svg" width="24" height="24" viewBox="0 0 18 19" fill="none">
  <path d="M2.1875 10.7874L2.73234 10.8345C2.70711 11.1263 2.45651 11.3464 2.16393 11.3338C1.87133 11.3211 1.64062 11.0803 1.64062 10.7874H2.1875ZM14.7555 9.45799L14.2411 6.48321L15.3188 6.29676L15.8333 9.27161L14.7555 9.45799ZM9.65781 2.75505H6.26817V1.6613H9.65781V2.75505ZM5.60363 3.36573L5.01143 10.2146L3.92175 10.1204L4.51395 3.27152L5.60363 3.36573ZM14.2411 6.48321C13.8715 4.34631 11.9447 2.75505 9.65781 2.75505V1.6613C12.4478 1.6613 14.8537 3.60745 15.3188 6.29676L14.2411 6.48321ZM9.66496 14.531L9.18174 11.5818L10.2611 11.405L10.7443 14.3541L9.66496 14.531ZM5.24105 10.7791L6.29013 11.6831L5.57615 12.5116L4.52707 11.6076L5.24105 10.7791ZM8.19875 14.6244L8.54561 15.9616L7.48694 16.2362L7.14006 14.899L8.19875 14.6244ZM9.06952 16.2239L9.17525 16.19L9.50979 17.2313L9.40406 17.2652L9.06952 16.2239ZM7.67339 13.2798C7.90081 13.7057 8.07749 14.1567 8.19875 14.6244L7.14006 14.899C7.04064 14.5157 6.89572 14.1454 6.70864 13.7952L7.67339 13.2798ZM9.17525 16.19C9.39867 16.1182 9.55733 15.9456 9.60947 15.7445L10.6682 16.0192C10.5184 16.5967 10.0764 17.0493 9.50979 17.2313L9.17525 16.19ZM8.54561 15.9616C8.57121 16.06 8.6423 16.1505 8.74985 16.2023L8.27502 17.1876C7.8871 17.0007 7.59573 16.6557 7.48694 16.2362L8.54561 15.9616ZM8.74985 16.2023C8.84807 16.2497 8.96372 16.2579 9.06952 16.2239L9.40406 17.2652C9.03241 17.3846 8.62692 17.3572 8.27502 17.1876L8.74985 16.2023ZM10.3204 10.2405H14.0983V11.3343H10.3204V10.2405ZM3.4408 2.64123L2.73234 10.8345L1.64266 10.7403L2.35112 2.54702L3.4408 2.64123ZM2.73438 2.5635V10.7874H1.64062V2.5635H2.73438ZM2.35112 2.54702C2.3415 2.65822 2.42919 2.75505 2.54239 2.75505V1.6613C3.07175 1.6613 3.48631 2.11492 3.4408 2.64123L2.35112 2.54702ZM10.7443 14.3541C10.8351 14.9084 10.8092 15.4755 10.6682 16.0192L9.60947 15.7445C9.71228 15.3483 9.73117 14.935 9.66496 14.531L10.7443 14.3541ZM6.26817 2.75505C5.92261 2.75505 5.63355 3.01974 5.60363 3.36573L4.51395 3.27152C4.59267 2.36115 5.35405 1.6613 6.26817 1.6613V2.75505ZM6.29013 11.6831C6.78586 12.1103 7.32025 12.6187 7.67339 13.2798L6.70864 13.7952C6.45607 13.3224 6.05391 12.9233 5.57615 12.5116L6.29013 11.6831ZM15.8333 9.27161C16.0194 10.3482 15.1915 11.3343 14.0983 11.3343V10.2405C14.5114 10.2405 14.8263 9.86741 14.7555 9.45799L15.8333 9.27161ZM2.54239 2.75505C2.649 2.75505 2.73438 2.66872 2.73438 2.5635H1.64062C1.64062 2.06577 2.04377 1.6613 2.54239 1.6613V2.75505ZM9.18174 11.5818C9.06675 10.8797 9.60794 10.2405 10.3204 10.2405V11.3343C10.284 11.3343 10.2549 11.3672 10.2611 11.405L9.18174 11.5818ZM5.01143 10.2146C4.9929 10.4289 5.07846 10.6389 5.24105 10.7791L4.52707 11.6076C4.09808 11.2379 3.87296 10.6845 3.92175 10.1204L5.01143 10.2146Z" fill="#2B2B2B"/>
</svg>