<?xml version="1.0" encoding="utf-8"?>
<svg xmlns="http://www.w3.org/2000/svg" width="24" height="24" viewBox="0 0 15 17" fill="none">
  <path d="M1.1875 7.2126L1.73234 7.16549C1.70711 6.87372 1.45651 6.6536 1.16393 6.66623C0.871333 6.67885 0.640625 6.91973 0.640625 7.2126H1.1875ZM13.7555 8.54201L13.2411 11.5168L14.3188 11.7032L14.8333 8.72839L13.7555 8.54201ZM8.65781 15.2449H5.26817V16.3387H8.65781V15.2449ZM4.60363 14.6343L4.01143 7.78543L2.92175 7.87964L3.51395 14.7285L4.60363 14.6343ZM13.2411 11.5168C12.8715 13.6537 10.9447 15.2449 8.65781 15.2449V16.3387C11.4478 16.3387 13.8537 14.3926 14.3188 11.7032L13.2411 11.5168ZM8.66496 3.46902L8.18174 6.41818L9.26113 6.59503L9.74434 3.64587L8.66496 3.46902ZM4.24105 7.22091L5.29013 6.31692L4.57615 5.48837L3.52707 6.39238L4.24105 7.22091ZM7.19875 3.37562L7.54561 2.03844L6.48694 1.7638L6.14006 3.10099L7.19875 3.37562ZM8.06952 1.77608L8.17525 1.81004L8.50979 0.76871L8.40406 0.734753L8.06952 1.77608ZM6.67339 4.72015C6.90081 4.29431 7.07749 3.84326 7.19875 3.37562L6.14006 3.10099C6.04064 3.48427 5.89572 3.85459 5.70864 4.20481L6.67339 4.72015ZM8.17525 1.81004C8.39867 1.88182 8.55733 2.05439 8.60947 2.25546L9.66822 1.98083C9.51838 1.40332 9.07635 0.950717 8.50979 0.76871L8.17525 1.81004ZM7.54561 2.03844C7.57121 1.93999 7.6423 1.84952 7.74985 1.79769L7.27502 0.812373C6.8871 0.999287 6.59573 1.34431 6.48694 1.7638L7.54561 2.03844ZM7.74985 1.79769C7.84807 1.75034 7.96372 1.7421 8.06952 1.77608L8.40406 0.734753C8.03241 0.615352 7.62692 0.642805 7.27502 0.812373L7.74985 1.79769ZM9.32041 7.75947H13.0983V6.66572H9.32041V7.75947ZM2.4408 15.3588L1.73234 7.16549L0.642659 7.2597L1.35112 15.453L2.4408 15.3588ZM1.73438 15.4365V7.2126H0.640625V15.4365H1.73438ZM1.35112 15.453C1.3415 15.3418 1.42919 15.2449 1.54239 15.2449V16.3387C2.07175 16.3387 2.48631 15.8851 2.4408 15.3588L1.35112 15.453ZM9.74434 3.64587C9.83512 3.09161 9.80924 2.52448 9.66822 1.98083L8.60947 2.25546C8.71228 2.65168 8.73117 3.06504 8.66496 3.46902L9.74434 3.64587ZM5.26817 15.2449C4.92261 15.2449 4.63355 14.9803 4.60363 14.6343L3.51395 14.7285C3.59267 15.6388 4.35405 16.3387 5.26817 16.3387V15.2449ZM5.29013 6.31692C5.78586 5.88974 6.32025 5.38127 6.67339 4.72015L5.70864 4.20481C5.45607 4.67763 5.05391 5.07667 4.57615 5.48837L5.29013 6.31692ZM14.8333 8.72839C15.0194 7.65177 14.1915 6.66572 13.0983 6.66572V7.75947C13.5114 7.75947 13.8263 8.13259 13.7555 8.54201L14.8333 8.72839ZM1.54239 15.2449C1.649 15.2449 1.73438 15.3313 1.73438 15.4365H0.640625C0.640625 15.9342 1.04377 16.3387 1.54239 16.3387V15.2449ZM8.18174 6.41818C8.06675 7.12029 8.60794 7.75947 9.32041 7.75947V6.66572C9.28402 6.66572 9.25493 6.63277 9.26113 6.59503L8.18174 6.41818ZM4.01143 7.78543C3.9929 7.57105 4.07846 7.36105 4.24105 7.22091L3.52707 6.39238C3.09808 6.76205 2.87296 7.31548 2.92175 7.87964L4.01143 7.78543Z" fill="#2B2B2B"/>
</svg>