<svg
className="clickable"
xmlns="http://www.w3.org/2000/svg"
width="21"
height="22"
viewBox="0 0 21 22"
fill="none"
>
<path
  d="M10.3746 19.2873C5.57211 19.2873 1.66211 15.3773 1.66211 10.5748C1.66211 5.77231 5.57211 1.8623 10.3746 1.8623C15.1771 1.8623 19.0871 5.77231 19.0871 10.5748C19.0871 15.3773 15.1771 19.2873 10.3746 19.2873ZM10.3746 3.13731C6.26912 3.13731 2.93711 6.47781 2.93711 10.5748C2.93711 14.6718 6.26912 18.0123 10.3746 18.0123C14.4801 18.0123 17.8121 14.6718 17.8121 10.5748C17.8121 6.47781 14.4801 3.13731 10.3746 3.13731Z"
  fill="white"
/>
<path
  d="M19.3002 20.1374C19.1387 20.1374 18.9772 20.0779 18.8497 19.9504L17.1497 18.2504C16.9032 18.0039 16.9032 17.5959 17.1497 17.3494C17.3962 17.1029 17.8042 17.1029 18.0507 17.3494L19.7507 19.0494C19.9972 19.2959 19.9972 19.7039 19.7507 19.9504C19.6232 20.0779 19.4617 20.1374 19.3002 20.1374Z"
  fill="white"
/>
</svg>